<mxfile host="app.diagrams.net" modified="2023-06-28T03:57:55.188Z" agent="Mozilla/5.0 (Macintosh; Intel Mac OS X 10_15_7) AppleWebKit/537.36 (KHTML, like Gecko) Chrome/114.0.0.0 Safari/537.36" etag="Rzgkhktc_LdmGbLBlBIE" version="21.5.1" type="github">
  <diagram name="第 1 页" id="QlqkZr_Dz_qlq-YX1CnW">
    <mxGraphModel dx="436" dy="279" grid="1" gridSize="10" guides="1" tooltips="1" connect="1" arrows="1" fold="1" page="1" pageScale="1" pageWidth="2339" pageHeight="3300" math="0" shadow="0">
      <root>
        <mxCell id="0" />
        <mxCell id="1" parent="0" />
        <mxCell id="gINnrKCMtKWkM-afQS_u-7" value="" style="edgeStyle=orthogonalEdgeStyle;rounded=0;orthogonalLoop=1;jettySize=auto;html=1;" parent="1" source="gINnrKCMtKWkM-afQS_u-1" target="gINnrKCMtKWkM-afQS_u-2" edge="1">
          <mxGeometry relative="1" as="geometry" />
        </mxCell>
        <mxCell id="gINnrKCMtKWkM-afQS_u-1" value="init" style="rounded=0;whiteSpace=wrap;html=1;" parent="1" vertex="1">
          <mxGeometry x="320" y="280" width="120" height="40" as="geometry" />
        </mxCell>
        <mxCell id="gINnrKCMtKWkM-afQS_u-8" value="" style="edgeStyle=orthogonalEdgeStyle;rounded=0;orthogonalLoop=1;jettySize=auto;html=1;" parent="1" source="gINnrKCMtKWkM-afQS_u-2" target="gINnrKCMtKWkM-afQS_u-3" edge="1">
          <mxGeometry relative="1" as="geometry" />
        </mxCell>
        <mxCell id="gINnrKCMtKWkM-afQS_u-2" value="根据 env 选择 bridgeSDK" style="rounded=0;whiteSpace=wrap;html=1;" parent="1" vertex="1">
          <mxGeometry x="520" y="280" width="120" height="40" as="geometry" />
        </mxCell>
        <mxCell id="gINnrKCMtKWkM-afQS_u-9" value="" style="edgeStyle=orthogonalEdgeStyle;rounded=0;orthogonalLoop=1;jettySize=auto;html=1;" parent="1" source="gINnrKCMtKWkM-afQS_u-3" target="gINnrKCMtKWkM-afQS_u-4" edge="1">
          <mxGeometry relative="1" as="geometry" />
        </mxCell>
        <mxCell id="gINnrKCMtKWkM-afQS_u-3" value="遍历 method Map" style="rounded=0;whiteSpace=wrap;html=1;" parent="1" vertex="1">
          <mxGeometry x="720" y="280" width="120" height="40" as="geometry" />
        </mxCell>
        <mxCell id="gINnrKCMtKWkM-afQS_u-10" value="" style="edgeStyle=orthogonalEdgeStyle;rounded=0;orthogonalLoop=1;jettySize=auto;html=1;" parent="1" source="gINnrKCMtKWkM-afQS_u-4" target="gINnrKCMtKWkM-afQS_u-5" edge="1">
          <mxGeometry relative="1" as="geometry" />
        </mxCell>
        <mxCell id="gINnrKCMtKWkM-afQS_u-4" value="根据 env 选择具体 method 执行函数" style="rounded=0;whiteSpace=wrap;html=1;" parent="1" vertex="1">
          <mxGeometry x="920" y="280" width="120" height="40" as="geometry" />
        </mxCell>
        <mxCell id="gINnrKCMtKWkM-afQS_u-11" value="" style="edgeStyle=orthogonalEdgeStyle;rounded=0;orthogonalLoop=1;jettySize=auto;html=1;" parent="1" source="gINnrKCMtKWkM-afQS_u-5" target="gINnrKCMtKWkM-afQS_u-6" edge="1">
          <mxGeometry relative="1" as="geometry" />
        </mxCell>
        <mxCell id="gINnrKCMtKWkM-afQS_u-5" value="合并具体执行函数" style="rounded=0;whiteSpace=wrap;html=1;" parent="1" vertex="1">
          <mxGeometry x="1120" y="280" width="120" height="40" as="geometry" />
        </mxCell>
        <mxCell id="gINnrKCMtKWkM-afQS_u-6" value="jsb" style="rounded=0;whiteSpace=wrap;html=1;" parent="1" vertex="1">
          <mxGeometry x="1320" y="280" width="120" height="40" as="geometry" />
        </mxCell>
        <mxCell id="gINnrKCMtKWkM-afQS_u-13" value="" style="endArrow=none;html=1;rounded=0;entryX=0.5;entryY=1;entryDx=0;entryDy=0;" parent="1" target="gINnrKCMtKWkM-afQS_u-2" edge="1">
          <mxGeometry width="50" height="50" relative="1" as="geometry">
            <mxPoint x="580" y="440" as="sourcePoint" />
            <mxPoint x="690" y="360" as="targetPoint" />
          </mxGeometry>
        </mxCell>
        <mxCell id="gINnrKCMtKWkM-afQS_u-14" value="" style="endArrow=none;html=1;rounded=0;" parent="1" edge="1">
          <mxGeometry width="50" height="50" relative="1" as="geometry">
            <mxPoint x="580" y="400" as="sourcePoint" />
            <mxPoint x="600" y="400" as="targetPoint" />
          </mxGeometry>
        </mxCell>
        <mxCell id="gINnrKCMtKWkM-afQS_u-43" value="BridgeSDKB" style="edgeLabel;html=1;align=center;verticalAlign=middle;resizable=0;points=[];" parent="gINnrKCMtKWkM-afQS_u-14" vertex="1" connectable="0">
          <mxGeometry x="0.6885" relative="1" as="geometry">
            <mxPoint x="33" as="offset" />
          </mxGeometry>
        </mxCell>
        <mxCell id="gINnrKCMtKWkM-afQS_u-15" value="" style="endArrow=none;html=1;rounded=0;" parent="1" edge="1">
          <mxGeometry width="50" height="50" relative="1" as="geometry">
            <mxPoint x="580" y="360" as="sourcePoint" />
            <mxPoint x="600" y="360" as="targetPoint" />
          </mxGeometry>
        </mxCell>
        <mxCell id="gINnrKCMtKWkM-afQS_u-42" value="BridgeSDKA" style="edgeLabel;html=1;align=center;verticalAlign=middle;resizable=0;points=[];" parent="gINnrKCMtKWkM-afQS_u-15" vertex="1" connectable="0">
          <mxGeometry x="-0.0403" relative="1" as="geometry">
            <mxPoint x="40" as="offset" />
          </mxGeometry>
        </mxCell>
        <mxCell id="gINnrKCMtKWkM-afQS_u-20" value="" style="endArrow=none;html=1;rounded=0;" parent="1" edge="1">
          <mxGeometry width="50" height="50" relative="1" as="geometry">
            <mxPoint x="580" y="440" as="sourcePoint" />
            <mxPoint x="600" y="440" as="targetPoint" />
          </mxGeometry>
        </mxCell>
        <mxCell id="gINnrKCMtKWkM-afQS_u-44" value="BridgeSDKX" style="edgeLabel;html=1;align=center;verticalAlign=middle;resizable=0;points=[];" parent="gINnrKCMtKWkM-afQS_u-20" vertex="1" connectable="0">
          <mxGeometry x="0.6692" y="1" relative="1" as="geometry">
            <mxPoint x="33" y="1" as="offset" />
          </mxGeometry>
        </mxCell>
        <mxCell id="gINnrKCMtKWkM-afQS_u-28" value="" style="endArrow=none;html=1;rounded=0;entryX=0.5;entryY=1;entryDx=0;entryDy=0;" parent="1" edge="1">
          <mxGeometry width="50" height="50" relative="1" as="geometry">
            <mxPoint x="980" y="520" as="sourcePoint" />
            <mxPoint x="979.8" y="320" as="targetPoint" />
          </mxGeometry>
        </mxCell>
        <mxCell id="gINnrKCMtKWkM-afQS_u-29" value="" style="endArrow=none;html=1;rounded=0;" parent="1" edge="1">
          <mxGeometry width="50" height="50" relative="1" as="geometry">
            <mxPoint x="980" y="400" as="sourcePoint" />
            <mxPoint x="1000" y="400.2" as="targetPoint" />
          </mxGeometry>
        </mxCell>
        <mxCell id="gINnrKCMtKWkM-afQS_u-48" value="各端（App1、App2、App3）" style="edgeLabel;html=1;align=center;verticalAlign=middle;resizable=0;points=[];" parent="gINnrKCMtKWkM-afQS_u-29" vertex="1" connectable="0">
          <mxGeometry x="0.2085" y="1" relative="1" as="geometry">
            <mxPoint x="78" as="offset" />
          </mxGeometry>
        </mxCell>
        <mxCell id="gINnrKCMtKWkM-afQS_u-30" value="" style="endArrow=none;html=1;rounded=0;" parent="1" edge="1">
          <mxGeometry width="50" height="50" relative="1" as="geometry">
            <mxPoint x="980" y="360" as="sourcePoint" />
            <mxPoint x="1000" y="360.2" as="targetPoint" />
          </mxGeometry>
        </mxCell>
        <mxCell id="gINnrKCMtKWkM-afQS_u-45" value="sdk env&amp;nbsp;" style="edgeLabel;html=1;align=center;verticalAlign=middle;resizable=0;points=[];" parent="gINnrKCMtKWkM-afQS_u-30" vertex="1" connectable="0">
          <mxGeometry x="0.0091" relative="1" as="geometry">
            <mxPoint x="30" as="offset" />
          </mxGeometry>
        </mxCell>
        <mxCell id="gINnrKCMtKWkM-afQS_u-34" value="" style="endArrow=none;html=1;rounded=0;" parent="1" edge="1">
          <mxGeometry width="50" height="50" relative="1" as="geometry">
            <mxPoint x="980" y="440" as="sourcePoint" />
            <mxPoint x="1000" y="440.2" as="targetPoint" />
          </mxGeometry>
        </mxCell>
        <mxCell id="gINnrKCMtKWkM-afQS_u-49" value="common（通用）" style="edgeLabel;html=1;align=center;verticalAlign=middle;resizable=0;points=[];" parent="gINnrKCMtKWkM-afQS_u-34" vertex="1" connectable="0">
          <mxGeometry x="0.2427" y="-1" relative="1" as="geometry">
            <mxPoint x="48" y="-1" as="offset" />
          </mxGeometry>
        </mxCell>
        <mxCell id="gINnrKCMtKWkM-afQS_u-36" value="" style="endArrow=none;html=1;rounded=0;" parent="1" edge="1">
          <mxGeometry width="50" height="50" relative="1" as="geometry">
            <mxPoint x="980" y="479.99999999999994" as="sourcePoint" />
            <mxPoint x="1000" y="480.2" as="targetPoint" />
          </mxGeometry>
        </mxCell>
        <mxCell id="gINnrKCMtKWkM-afQS_u-50" value="default（兜底）" style="edgeLabel;html=1;align=center;verticalAlign=middle;resizable=0;points=[];" parent="gINnrKCMtKWkM-afQS_u-36" vertex="1" connectable="0">
          <mxGeometry x="0.0995" y="1" relative="1" as="geometry">
            <mxPoint x="49" as="offset" />
          </mxGeometry>
        </mxCell>
        <mxCell id="gINnrKCMtKWkM-afQS_u-40" value="" style="endArrow=none;html=1;rounded=0;" parent="1" edge="1">
          <mxGeometry width="50" height="50" relative="1" as="geometry">
            <mxPoint x="980" y="520.2" as="sourcePoint" />
            <mxPoint x="1000" y="520.2" as="targetPoint" />
          </mxGeometry>
        </mxCell>
        <mxCell id="gINnrKCMtKWkM-afQS_u-51" value="notSupport" style="edgeLabel;html=1;align=center;verticalAlign=middle;resizable=0;points=[];" parent="gINnrKCMtKWkM-afQS_u-40" vertex="1" connectable="0">
          <mxGeometry x="0.2394" y="1" relative="1" as="geometry">
            <mxPoint x="38" as="offset" />
          </mxGeometry>
        </mxCell>
        <mxCell id="IUW8P1MZcCfPq_Lffvb7-4" value="JS" style="shape=umlLifeline;perimeter=lifelinePerimeter;whiteSpace=wrap;html=1;container=1;dropTarget=0;collapsible=0;recursiveResize=0;outlineConnect=0;portConstraint=eastwest;newEdgeStyle={&quot;edgeStyle&quot;:&quot;elbowEdgeStyle&quot;,&quot;elbow&quot;:&quot;vertical&quot;,&quot;curved&quot;:0,&quot;rounded&quot;:0};" vertex="1" parent="1">
          <mxGeometry x="514" y="760" width="80" height="440" as="geometry" />
        </mxCell>
        <mxCell id="IUW8P1MZcCfPq_Lffvb7-8" value="" style="html=1;points=[];perimeter=orthogonalPerimeter;outlineConnect=0;targetShapes=umlLifeline;portConstraint=eastwest;newEdgeStyle={&quot;edgeStyle&quot;:&quot;elbowEdgeStyle&quot;,&quot;elbow&quot;:&quot;vertical&quot;,&quot;curved&quot;:0,&quot;rounded&quot;:0};" vertex="1" parent="IUW8P1MZcCfPq_Lffvb7-4">
          <mxGeometry x="35" y="80" width="10" height="320" as="geometry" />
        </mxCell>
        <mxCell id="IUW8P1MZcCfPq_Lffvb7-15" value="" style="html=1;points=[];perimeter=orthogonalPerimeter;outlineConnect=0;targetShapes=umlLifeline;portConstraint=eastwest;newEdgeStyle={&quot;edgeStyle&quot;:&quot;elbowEdgeStyle&quot;,&quot;elbow&quot;:&quot;vertical&quot;,&quot;curved&quot;:0,&quot;rounded&quot;:0};" vertex="1" parent="IUW8P1MZcCfPq_Lffvb7-4">
          <mxGeometry x="40" y="110" width="10" height="40" as="geometry" />
        </mxCell>
        <mxCell id="IUW8P1MZcCfPq_Lffvb7-16" value="generate callbackId&lt;br&gt;callbackMap[callbackId] = callback" style="html=1;align=left;spacingLeft=2;endArrow=block;rounded=0;edgeStyle=orthogonalEdgeStyle;curved=0;rounded=0;" edge="1" target="IUW8P1MZcCfPq_Lffvb7-15" parent="IUW8P1MZcCfPq_Lffvb7-4">
          <mxGeometry x="-0.0033" relative="1" as="geometry">
            <mxPoint x="45" y="90" as="sourcePoint" />
            <Array as="points">
              <mxPoint x="75" y="120" />
            </Array>
            <mxPoint as="offset" />
          </mxGeometry>
        </mxCell>
        <mxCell id="IUW8P1MZcCfPq_Lffvb7-22" value="" style="html=1;points=[];perimeter=orthogonalPerimeter;outlineConnect=0;targetShapes=umlLifeline;portConstraint=eastwest;newEdgeStyle={&quot;edgeStyle&quot;:&quot;elbowEdgeStyle&quot;,&quot;elbow&quot;:&quot;vertical&quot;,&quot;curved&quot;:0,&quot;rounded&quot;:0};" vertex="1" parent="IUW8P1MZcCfPq_Lffvb7-4">
          <mxGeometry x="40" y="320" width="10" height="40" as="geometry" />
        </mxCell>
        <mxCell id="IUW8P1MZcCfPq_Lffvb7-23" value="callback = callbackMap[callbackId]&lt;br&gt;callback(result)" style="html=1;align=left;spacingLeft=2;endArrow=block;rounded=0;edgeStyle=orthogonalEdgeStyle;curved=0;rounded=0;" edge="1" target="IUW8P1MZcCfPq_Lffvb7-22" parent="IUW8P1MZcCfPq_Lffvb7-4">
          <mxGeometry relative="1" as="geometry">
            <mxPoint x="45" y="300" as="sourcePoint" />
            <Array as="points">
              <mxPoint x="75" y="330" />
            </Array>
          </mxGeometry>
        </mxCell>
        <mxCell id="IUW8P1MZcCfPq_Lffvb7-5" value="Native" style="shape=umlLifeline;perimeter=lifelinePerimeter;whiteSpace=wrap;html=1;container=1;dropTarget=0;collapsible=0;recursiveResize=0;outlineConnect=0;portConstraint=eastwest;newEdgeStyle={&quot;edgeStyle&quot;:&quot;elbowEdgeStyle&quot;,&quot;elbow&quot;:&quot;vertical&quot;,&quot;curved&quot;:0,&quot;rounded&quot;:0};" vertex="1" parent="1">
          <mxGeometry x="820" y="760" width="80" height="440" as="geometry" />
        </mxCell>
        <mxCell id="IUW8P1MZcCfPq_Lffvb7-17" value="" style="html=1;points=[];perimeter=orthogonalPerimeter;outlineConnect=0;targetShapes=umlLifeline;portConstraint=eastwest;newEdgeStyle={&quot;edgeStyle&quot;:&quot;elbowEdgeStyle&quot;,&quot;elbow&quot;:&quot;vertical&quot;,&quot;curved&quot;:0,&quot;rounded&quot;:0};" vertex="1" parent="IUW8P1MZcCfPq_Lffvb7-5">
          <mxGeometry x="35" y="190.00000000000006" width="10" height="80" as="geometry" />
        </mxCell>
        <mxCell id="IUW8P1MZcCfPq_Lffvb7-10" value="用户调用" style="html=1;verticalAlign=bottom;startArrow=circle;startFill=1;endArrow=open;startSize=6;endSize=8;edgeStyle=elbowEdgeStyle;elbow=vertical;curved=0;rounded=0;" edge="1" parent="1">
          <mxGeometry width="80" relative="1" as="geometry">
            <mxPoint x="444" y="850" as="sourcePoint" />
            <mxPoint x="544" y="850.2" as="targetPoint" />
            <Array as="points">
              <mxPoint x="424" y="850" />
            </Array>
          </mxGeometry>
        </mxCell>
        <mxCell id="IUW8P1MZcCfPq_Lffvb7-19" value="&lt;div data-docx-has-block-data=&quot;false&quot; data-page-id=&quot;O3Zrd4JiQovSLaxuxKEcCTOUnIb&quot;&gt;&lt;div class=&quot;old-record-id-Atigdmb5oogznvxZklyccYrrn9i&quot; style=&quot;&quot;&gt;window.JSBridge.onReceive(result, callbackId)&lt;/div&gt;&lt;/div&gt;" style="html=1;verticalAlign=bottom;endArrow=open;dashed=1;endSize=8;edgeStyle=elbowEdgeStyle;elbow=vertical;curved=0;rounded=0;" edge="1" parent="1">
          <mxGeometry relative="1" as="geometry">
            <mxPoint x="560" y="1020" as="targetPoint" />
            <mxPoint x="855" y="1019.9999999999998" as="sourcePoint" />
            <Array as="points">
              <mxPoint x="760" y="1020" />
            </Array>
          </mxGeometry>
        </mxCell>
        <mxCell id="IUW8P1MZcCfPq_Lffvb7-18" value="&lt;div data-docx-has-block-data=&quot;false&quot; data-page-id=&quot;O3Zrd4JiQovSLaxuxKEcCTOUnIb&quot;&gt;&lt;div class=&quot;old-record-id-Atigdmb5oogznvxZklyccYrrn9i&quot; style=&quot;&quot;&gt;window.JSBridge.call(method, params, callbackId)&lt;/div&gt;&lt;/div&gt;" style="html=1;verticalAlign=bottom;endArrow=block;edgeStyle=elbowEdgeStyle;elbow=vertical;curved=0;rounded=0;" edge="1" parent="1">
          <mxGeometry x="0.4369" relative="1" as="geometry">
            <mxPoint x="780" y="960" as="sourcePoint" />
            <mxPoint x="855" y="960" as="targetPoint" />
            <Array as="points">
              <mxPoint x="560" y="960" />
            </Array>
            <mxPoint as="offset" />
          </mxGeometry>
        </mxCell>
      </root>
    </mxGraphModel>
  </diagram>
</mxfile>
